Coordinates
version=1
nRows=7
nColumns=40
inDegrees=yes

Units are S.I. units (second, meters, Newtons, ...)
Angles are in degrees.

endheader
time	pelvis_tilt	pelvis_list	pelvis_rotation	pelvis_tx	pelvis_ty	pelvis_tz	hip_flexion_r	hip_adduction_r	hip_rotation_r	knee_angle_r	knee_angle_r_beta	ankle_angle_r	subtalar_angle_r	mtp_angle_r	hip_flexion_l	hip_adduction_l	hip_rotation_l	knee_angle_l	knee_angle_l_beta	ankle_angle_l	subtalar_angle_l	mtp_angle_l	lumbar_extension	lumbar_bending	lumbar_rotation	arm_flex_r	arm_add_r	arm_rot_r	elbow_flex_r	pro_sup_r	wrist_flex_r	wrist_dev_r	arm_flex_l	arm_add_l	arm_rot_l	elbow_flex_l	pro_sup_l	wrist_flex_l	wrist_dev_l
     33.09250000	     -7.44578690	     -4.72541356	      4.90642019	      1.06364994	      0.92946002	      0.45475932	     13.31139605	      4.20304438	    -17.75803145	     12.50657341	     12.50657341	      9.01967167	     -2.61803842	     -2.41687127	     38.11376771	     -7.88699961	      4.42637081	     49.96971300	     49.96971300	      8.76203917	    -18.48977740	     12.60684770	    -12.45772030	      4.01564490	      2.69071848	     34.79060243	    -22.46971591	      0.39673634	     94.37217421	     44.32172522	      0.00000000	      0.00000000	     -3.40667360	     -7.01385158	     -6.72054749	     29.29580894	     46.46229912	      0.00000000	      0.00000000
     33.10471429	     -7.62967862	     -4.63302405	      5.07273814	      1.06244292	      0.92940298	      0.45440713	     12.86917602	      4.14795144	    -17.83130147	     12.12900501	     12.12900501	      9.23462467	     -2.44724454	     -2.53205332	     38.46411522	     -7.37775780	      4.46245553	     46.44108940	     46.44108940	      9.06637061	    -18.25915481	     13.06997405	    -12.44240434	      3.92015420	      2.82825106	     36.23051083	    -22.32673682	      0.26635165	     95.48672611	     44.30579691	      0.00000000	      0.00000000	     -3.92678377	     -6.79279807	     -6.75946529	     29.29909394	     46.45282895	      0.00000000	      0.00000000
     33.11692857	     -7.81306231	     -4.58725642	      5.24672208	      1.06130295	      0.92918004	      0.45389301	     12.44418079	      4.11694286	    -17.96067193	     11.79637072	     11.79637072	      9.48986685	     -2.20242321	     -2.69442448	     38.71119996	     -6.86301973	      4.64075040	     42.86163674	     42.86163674	      9.30989249	    -17.76391398	     13.31925008	    -12.40032689	      3.89709783	      2.94744020	     37.59557420	    -22.13318002	      0.16357528	     96.58590878	     44.28876859	      0.00000000	      0.00000000	     -4.41276584	     -6.50891641	     -6.81552514	     29.34063800	     46.44760295	      0.00000000	      0.00000000
     33.12914286	     -7.98414019	     -4.55825419	      5.38628721	      1.06024923	      0.92884299	      0.45325514	     12.02290320	      4.09107010	    -18.13381703	     11.51029471	     11.51029471	      9.75423946	     -1.89298490	     -2.87404044	     38.83374182	     -6.38291167	      4.84452004	     39.29678703	     39.29678703	      9.57555233	    -16.91241564	     13.32795445	    -12.36670741	      3.94041942	      3.05365995	     38.86664701	    -21.90469262	      0.08788533	     97.62279855	     44.27306521	      0.00000000	      0.00000000	     -4.85322392	     -6.23371090	     -6.89693169	     29.45464134	     46.44653415	      0.00000000	      0.00000000
     33.14135714	     -8.09341259	     -4.56979977	      5.50218471	      1.05938534	      0.92843970	      0.45261446	     11.53968953	      4.10431270	    -18.35008400	     11.25724978	     11.25724978	     10.08427564	     -1.45281301	     -3.08476847	     38.80828368	     -5.99355492	      5.06415325	     35.82372168	     35.82372168	      9.77137039	    -15.72164744	     13.08728577	    -12.36620476	      4.00279088	      3.15906215	     40.02722188	    -21.57956220	      0.07042521	     98.63255834	     44.25845866	      0.00000000	      0.00000000	     -5.31060949	     -5.98402542	     -7.02694811	     29.66268142	     46.45087927	      0.00000000	      0.00000000
     33.15357143	     -8.19738232	     -4.61541360	      5.60049794	      1.05866832	      0.92789444	      0.45188145	     11.06482740	      4.14476093	    -18.54791843	     11.05104812	     11.05104812	     10.47169356	     -1.03961241	     -3.27637946	     38.73260591	     -5.71214549	      5.12393579	     32.54346802	     32.54346802	      9.96092668	    -14.23774685	     12.83002534	    -12.30263909	      4.15017009	      3.29561792	     41.10772930	    -21.27831930	      0.06708765	     99.42644004	     44.24982158	      0.00000000	      0.00000000	     -5.68814336	     -5.74190016	     -7.15784618	     29.90877799	     46.45656185	      0.00000000	      0.00000000
     33.16578571	     -8.39547696	     -4.85758518	      5.65416256	      1.05790423	      0.92698534	      0.45124089	     10.79814561	      4.38505031	    -18.65853375	     10.98925870	     10.98925870	     10.78395728	     -0.88935896	     -3.43183195	     38.87319822	     -5.60552055	      5.39136161	     29.72664106	     29.72664106	     10.17806370	    -12.85744231	     12.95148500	    -12.13295894	      4.45232821	      3.64000826	     42.06319479	    -21.12683600	      0.02595934	     99.85558448	     44.24552627	      0.00000000	      0.00000000	     -5.92986092	     -5.47098249	     -7.18163080	     29.98970728	     46.45327750	      0.00000000	      0.00000000
